<svg xmlns="http://www.w3.org/2000/svg" xmlns:xlink="http://www.w3.org/1999/xlink" width="500" zoomAndPan="magnify" viewBox="0 0 375 374.999991" height="500" preserveAspectRatio="xMidYMid meet" version="1.0"><defs><g/><clipPath id="62236b7b21"><path d="M 40 67 L 337.5 67 L 337.5 314 L 40 314 Z M 40 67 " clip-rule="nonzero"/></clipPath></defs><g clip-path="url(#62236b7b21)"><path fill="#000000" d="M 205.265625 72.316406 C 194.621094 106.550781 241.160156 128.121094 237.582031 139.589844 C 219.015625 146.746094 198.480469 136.269531 178.96875 142.046875 C 162.988281 140.972656 147.335938 144.914062 133.070312 151.921875 C 115.929688 157.464844 104.660156 171.960938 91.550781 183.3125 C 81.875 187.699219 79.011719 200.695312 72.542969 205.621094 C 62.285156 204.191406 37.5625 204.757812 50.285156 223.296875 C 53.695312 229.957031 66.332031 240.976562 71.484375 236.046875 C 64.84375 244.03125 58.171875 240.011719 53.855469 249.808594 C 47.988281 261.515625 46.746094 275.285156 41.265625 286.851562 C 39.785156 295.109375 41.964844 318.011719 52.320312 312.820312 C 72.640625 300.277344 57.1875 257.949219 106.164062 262.082031 C 118.921875 260.867188 127.917969 249.59375 137.683594 242.300781 C 145.285156 239.964844 154.414062 234.488281 160.894531 230.886719 C 175.449219 223.074219 226.371094 214.429688 230.832031 217.039062 C 245.878906 221.308594 262.246094 219.800781 276.980469 225.90625 C 284.542969 229.980469 308.25 241.769531 306.460938 225.613281 C 305.488281 218.613281 287.589844 210.183594 303.167969 214.367188 C 313.988281 215.898438 330.746094 225.703125 337.421875 213.136719 C 336.890625 199.53125 322.949219 207.761719 316.433594 203.351562 C 309.363281 200.730469 306.402344 198.539062 297.429688 196.578125 C 280.742188 194.625 294.753906 182.460938 304.65625 182.960938 C 321.089844 182.152344 315.988281 159.183594 309.042969 151.402344 C 302.082031 136.804688 287.183594 128.917969 272.183594 125.039062 C 265.621094 111.433594 260.28125 96.855469 250.664062 85.09375 C 243.960938 78.523438 228.15625 72.578125 222.410156 78.722656 C 219.410156 79.707031 210.078125 57.265625 205.265625 72.316406 Z M 205.265625 72.316406 " fill-opacity="1" fill-rule="nonzero"/></g><g fill="#000000" fill-opacity="1"><g transform="translate(81.795996, 181.987421)"><g><path d="M 0.9375 -1.015625 L -10.84375 -11.84375 L -8.546875 -14.34375 L 1.171875 -5.40625 L 5.8125 -10.453125 L 7.875 -8.5625 Z M 0.9375 -1.015625 "/></g></g></g><g fill="#000000" fill-opacity="1"><g transform="translate(93.339309, 169.803488)"><g><path d="M 1.0625 -0.890625 L -9.21875 -13.15625 L -0.953125 -20.078125 L 0.84375 -17.9375 L -4.8125 -13.203125 L -2.375 -10.28125 L 2.859375 -14.671875 L 4.65625 -12.53125 L -0.578125 -8.140625 L 1.875 -5.21875 L 7.5625 -9.984375 L 9.359375 -7.84375 Z M 1.0625 -0.890625 "/></g></g></g><g fill="#000000" fill-opacity="1"><g transform="translate(107.392483, 158.613592)"><g/></g></g><g fill="#000000" fill-opacity="1"><g transform="translate(115.397703, 153.256318)"><g><path d="M 1.21875 -0.65625 L -6.375 -14.734375 L -3.390625 -16.34375 L 2.875 -4.734375 L 8.921875 -7.984375 L 10.25 -5.515625 Z M 1.21875 -0.65625 "/></g></g></g><g fill="#000000" fill-opacity="1"><g transform="translate(130.52202, 145.555867)"><g><path d="M -1.671875 -16.625 L 4.421875 -1.828125 L 1.28125 -0.53125 L -4.8125 -15.328125 Z M -1.671875 -16.625 "/></g></g></g><g fill="#000000" fill-opacity="1"><g transform="translate(140.384574, 141.54242)"><g><path d="M 1.328125 -0.390625 L -3.140625 -15.75 L 7.21875 -18.765625 L 7.984375 -16.09375 L 0.890625 -14.03125 L 1.96875 -10.375 L 8.53125 -12.28125 L 9.3125 -9.59375 L 2.75 -7.6875 L 3.8125 -4.03125 L 10.9375 -6.09375 L 11.71875 -3.40625 Z M 2.796875 -19.078125 L 0.53125 -18.421875 L -2.75 -21.1875 L 0.1875 -22.046875 Z M 2.796875 -19.078125 "/></g></g></g><g fill="#000000" fill-opacity="1"><g transform="translate(157.408376, 136.786279)"><g><path d="M 2 -16.4375 L 7.546875 -4.953125 L 7.6875 -4.96875 L 9.8125 -17.546875 L 13.53125 -18.0625 L 10.296875 -1.453125 L 5.984375 -0.84375 L -1.703125 -15.921875 Z M 2 -16.4375 "/></g></g></g><g fill="#000000" fill-opacity="1"><g transform="translate(177.872585, 134.288893)"><g><path d="M 1.390625 0.015625 L 1.5 -15.984375 L 7.8125 -15.953125 C 9.632812 -15.929688 11.039062 -15.441406 12.03125 -14.484375 C 13.03125 -13.535156 13.523438 -12.269531 13.515625 -10.6875 C 13.503906 -9.59375 13.253906 -8.660156 12.765625 -7.890625 C 12.273438 -7.117188 11.570312 -6.535156 10.65625 -6.140625 L 14.015625 0.09375 L 10.28125 0.078125 L 7.296875 -5.625 L 4.828125 -5.640625 L 4.78125 0.03125 Z M 4.84375 -8.359375 L 7.140625 -8.34375 C 9.054688 -8.320312 10.019531 -9.109375 10.03125 -10.703125 C 10.039062 -12.335938 9.082031 -13.164062 7.15625 -13.1875 L 4.875 -13.203125 Z M 4.84375 -8.359375 "/></g></g></g><g fill="#000000" fill-opacity="1"><g transform="translate(196.548248, 134.743701)"><g><path d="M 1.375 0.203125 L 3.65625 -15.625 L 14.328125 -14.09375 L 13.9375 -11.34375 L 6.625 -12.390625 L 6.078125 -8.625 L 12.84375 -7.65625 L 12.4375 -4.890625 L 5.671875 -5.859375 L 5.140625 -2.078125 L 12.484375 -1.015625 L 12.078125 1.75 Z M 1.375 0.203125 "/></g></g></g><g fill="#000000" fill-opacity="1"><g transform="translate(131.556238, 274.032676)"><g><path d="M 3.625 -3.15625 L 0.71875 -0.625 L -6.4375 -8.84375 L -3.5 -11.40625 C -2.664062 -12.125 -1.8125 -12.582031 -0.9375 -12.78125 C -0.0625 -12.976562 0.800781 -12.910156 1.65625 -12.578125 C 2.519531 -12.242188 3.320312 -11.648438 4.0625 -10.796875 C 4.8125 -9.941406 5.289062 -9.0625 5.5 -8.15625 C 5.71875 -7.257812 5.671875 -6.382812 5.359375 -5.53125 C 5.046875 -4.6875 4.46875 -3.894531 3.625 -3.15625 Z M 1.15625 -3.625 L 2.265625 -4.578125 C 3.035156 -5.253906 3.4375 -5.976562 3.46875 -6.75 C 3.507812 -7.519531 3.128906 -8.363281 2.328125 -9.28125 C 1.535156 -10.1875 0.757812 -10.671875 0 -10.734375 C -0.769531 -10.804688 -1.539062 -10.503906 -2.3125 -9.828125 L -3.421875 -8.875 Z M 1.15625 -3.625 "/></g></g></g><g fill="#000000" fill-opacity="1"><g transform="translate(142.181721, 265.022555)"><g><path d="M 0.78125 -0.5625 L -5.578125 -9.421875 L 0.375 -13.703125 L 1.484375 -12.15625 L -2.609375 -9.203125 L -1.09375 -7.09375 L 2.703125 -9.828125 L 3.8125 -8.28125 L 0.015625 -5.546875 L 1.53125 -3.4375 L 5.65625 -6.40625 L 6.765625 -4.859375 Z M 0.78125 -0.5625 "/></g></g></g><g fill="#000000" fill-opacity="1"><g transform="translate(152.184762, 257.981874)"><g><path d="M 1.953125 -10.171875 C 1.691406 -10.523438 1.363281 -10.722656 0.96875 -10.765625 C 0.570312 -10.804688 0.132812 -10.6875 -0.34375 -10.40625 C -0.820312 -10.113281 -1.132812 -9.789062 -1.28125 -9.4375 C -1.425781 -9.09375 -1.40625 -8.769531 -1.21875 -8.46875 C -1.039062 -8.125 -0.75 -7.953125 -0.34375 -7.953125 C 0.0507812 -7.953125 0.476562 -8.03125 0.9375 -8.1875 L 1.90625 -8.484375 C 2.53125 -8.679688 3.117188 -8.785156 3.671875 -8.796875 C 4.234375 -8.816406 4.742188 -8.710938 5.203125 -8.484375 C 5.660156 -8.265625 6.046875 -7.890625 6.359375 -7.359375 C 6.859375 -6.515625 6.9375 -5.644531 6.59375 -4.75 C 6.257812 -3.851562 5.519531 -3.066406 4.375 -2.390625 C 3.226562 -1.722656 2.160156 -1.445312 1.171875 -1.5625 C 0.191406 -1.6875 -0.601562 -2.25 -1.21875 -3.25 L 0.703125 -4.390625 C 1.003906 -3.941406 1.394531 -3.695312 1.875 -3.65625 C 2.351562 -3.613281 2.851562 -3.75 3.375 -4.0625 C 3.875 -4.351562 4.210938 -4.691406 4.390625 -5.078125 C 4.566406 -5.472656 4.550781 -5.84375 4.34375 -6.1875 C 4.15625 -6.5 3.875 -6.660156 3.5 -6.671875 C 3.125 -6.679688 2.644531 -6.597656 2.0625 -6.421875 L 0.890625 -6.078125 C -0.00390625 -5.804688 -0.804688 -5.738281 -1.515625 -5.875 C -2.222656 -6.007812 -2.773438 -6.425781 -3.171875 -7.125 C -3.523438 -7.6875 -3.671875 -8.273438 -3.609375 -8.890625 C -3.546875 -9.503906 -3.316406 -10.085938 -2.921875 -10.640625 C -2.523438 -11.203125 -1.988281 -11.679688 -1.3125 -12.078125 C -0.613281 -12.492188 0.0625 -12.734375 0.71875 -12.796875 C 1.382812 -12.867188 1.988281 -12.773438 2.53125 -12.515625 C 3.070312 -12.265625 3.515625 -11.863281 3.859375 -11.3125 Z M 1.953125 -10.171875 "/></g></g></g><g fill="#000000" fill-opacity="1"><g transform="translate(163.44193, 251.578432)"><g><path d="M -1.953125 -11.21875 L 2.90625 -1.453125 L 0.859375 -0.421875 L -4 -10.1875 Z M -1.953125 -11.21875 "/></g></g></g><g fill="#000000" fill-opacity="1"><g transform="translate(169.983883, 248.303301)"><g><path d="M 4.828125 -9.921875 C 4.503906 -10.335938 4.101562 -10.601562 3.625 -10.71875 C 3.144531 -10.832031 2.632812 -10.78125 2.09375 -10.5625 C 1.3125 -10.25 0.796875 -9.710938 0.546875 -8.953125 C 0.304688 -8.191406 0.398438 -7.285156 0.828125 -6.234375 C 1.253906 -5.171875 1.816406 -4.445312 2.515625 -4.0625 C 3.222656 -3.675781 3.976562 -3.644531 4.78125 -3.96875 C 5.488281 -4.25 5.972656 -4.660156 6.234375 -5.203125 C 6.492188 -5.742188 6.503906 -6.328125 6.265625 -6.953125 L 4.09375 -6.078125 L 3.4375 -7.6875 L 7.671875 -9.390625 L 8.1875 -8.109375 C 8.539062 -7.222656 8.65625 -6.382812 8.53125 -5.59375 C 8.414062 -4.800781 8.097656 -4.097656 7.578125 -3.484375 C 7.066406 -2.878906 6.390625 -2.40625 5.546875 -2.0625 C 4.597656 -1.6875 3.675781 -1.5625 2.78125 -1.6875 C 1.882812 -1.8125 1.082031 -2.179688 0.375 -2.796875 C -0.332031 -3.421875 -0.898438 -4.265625 -1.328125 -5.328125 C -1.773438 -6.421875 -1.945312 -7.441406 -1.84375 -8.390625 C -1.738281 -9.347656 -1.410156 -10.175781 -0.859375 -10.875 C -0.316406 -11.570312 0.398438 -12.097656 1.296875 -12.453125 C 2.054688 -12.765625 2.800781 -12.898438 3.53125 -12.859375 C 4.269531 -12.816406 4.941406 -12.617188 5.546875 -12.265625 C 6.148438 -11.910156 6.632812 -11.421875 7 -10.796875 Z M 4.828125 -9.921875 "/></g></g></g><g fill="#000000" fill-opacity="1"><g transform="translate(183.390312, 243.065849)"><g><path d="M 6.640625 -13.28125 L 9.671875 -2.8125 L 7.765625 -2.25 L 1.296875 -7.515625 L 1.21875 -7.5 L 3.125 -0.90625 L 0.921875 -0.265625 L -2.109375 -10.734375 L -0.1875 -11.296875 L 6.265625 -6.03125 L 6.34375 -6.0625 L 4.4375 -12.640625 Z M 6.640625 -13.28125 "/></g></g></g><g fill="#000000" fill-opacity="1"><g transform="translate(197.044556, 239.370485)"><g/></g></g><g fill="#000000" fill-opacity="1"><g transform="translate(203.52669, 237.998859)"><g><path d="M 5.71875 -8.640625 C 5.625 -9.066406 5.394531 -9.367188 5.03125 -9.546875 C 4.675781 -9.734375 4.226562 -9.789062 3.6875 -9.71875 C 3.125 -9.644531 2.707031 -9.472656 2.4375 -9.203125 C 2.175781 -8.941406 2.070312 -8.632812 2.125 -8.28125 C 2.164062 -7.90625 2.367188 -7.640625 2.734375 -7.484375 C 3.109375 -7.328125 3.535156 -7.226562 4.015625 -7.1875 L 5.015625 -7.09375 C 5.671875 -7.03125 6.257812 -6.898438 6.78125 -6.703125 C 7.300781 -6.503906 7.726562 -6.210938 8.0625 -5.828125 C 8.394531 -5.453125 8.609375 -4.957031 8.703125 -4.34375 C 8.835938 -3.363281 8.578125 -2.53125 7.921875 -1.84375 C 7.265625 -1.15625 6.273438 -0.71875 4.953125 -0.53125 C 3.640625 -0.351562 2.550781 -0.507812 1.6875 -1 C 0.832031 -1.488281 0.3125 -2.3125 0.125 -3.46875 L 2.328125 -3.78125 C 2.441406 -3.25 2.710938 -2.875 3.140625 -2.65625 C 3.566406 -2.4375 4.078125 -2.367188 4.671875 -2.453125 C 5.242188 -2.535156 5.6875 -2.722656 6 -3.015625 C 6.320312 -3.304688 6.453125 -3.648438 6.390625 -4.046875 C 6.347656 -4.410156 6.148438 -4.664062 5.796875 -4.8125 C 5.453125 -4.957031 4.976562 -5.066406 4.375 -5.140625 L 3.171875 -5.265625 C 2.222656 -5.359375 1.445312 -5.601562 0.84375 -6 C 0.25 -6.40625 -0.09375 -7.003906 -0.1875 -7.796875 C -0.289062 -8.460938 -0.195312 -9.0625 0.09375 -9.59375 C 0.382812 -10.132812 0.816406 -10.582031 1.390625 -10.9375 C 1.972656 -11.300781 2.65625 -11.535156 3.4375 -11.640625 C 4.238281 -11.753906 4.957031 -11.71875 5.59375 -11.53125 C 6.238281 -11.34375 6.757812 -11.023438 7.15625 -10.578125 C 7.5625 -10.140625 7.8125 -9.59375 7.90625 -8.9375 Z M 5.71875 -8.640625 "/></g></g></g><g fill="#000000" fill-opacity="1"><g transform="translate(216.272879, 236.358519)"><g><path d="M 0.109375 -9.015625 L 0.03125 -10.921875 L 8.984375 -11.328125 L 9.0625 -9.421875 L 5.734375 -9.265625 L 6.15625 -0.28125 L 3.875 -0.171875 L 3.453125 -9.15625 Z M 0.109375 -9.015625 "/></g></g></g><g fill="#000000" fill-opacity="1"><g transform="translate(229.299008, 235.879877)"><g><path d="M 8.234375 -10.5 L 10.53125 -10.390625 L 10.171875 -3.203125 C 10.128906 -2.378906 9.894531 -1.6875 9.46875 -1.125 C 9.050781 -0.570312 8.492188 -0.164062 7.796875 0.09375 C 7.109375 0.363281 6.328125 0.476562 5.453125 0.4375 C 4.578125 0.382812 3.804688 0.195312 3.140625 -0.125 C 2.472656 -0.457031 1.960938 -0.921875 1.609375 -1.515625 C 1.253906 -2.117188 1.097656 -2.832031 1.140625 -3.65625 L 1.5 -10.84375 L 3.796875 -10.734375 L 3.4375 -3.625 C 3.40625 -3.039062 3.59375 -2.570312 4 -2.21875 C 4.40625 -1.863281 4.925781 -1.664062 5.5625 -1.625 C 6.195312 -1.59375 6.734375 -1.734375 7.171875 -2.046875 C 7.609375 -2.359375 7.84375 -2.804688 7.875 -3.390625 Z M 8.234375 -10.5 "/></g></g></g><g fill="#000000" fill-opacity="1"><g transform="translate(243.208209, 236.726575)"><g><path d="M 4.765625 0.71875 L 0.9375 0.140625 L 2.5625 -10.640625 L 6.421875 -10.0625 C 7.503906 -9.894531 8.40625 -9.539062 9.125 -9 C 9.84375 -8.457031 10.351562 -7.75 10.65625 -6.875 C 10.957031 -6.007812 11.023438 -5.015625 10.859375 -3.890625 C 10.691406 -2.765625 10.332031 -1.832031 9.78125 -1.09375 C 9.238281 -0.351562 8.539062 0.171875 7.6875 0.484375 C 6.832031 0.804688 5.859375 0.882812 4.765625 0.71875 Z M 3.515625 -1.46875 L 4.96875 -1.25 C 5.988281 -1.09375 6.800781 -1.25 7.40625 -1.71875 C 8.007812 -2.1875 8.398438 -3.023438 8.578125 -4.234375 C 8.753906 -5.429688 8.625 -6.34375 8.1875 -6.96875 C 7.75 -7.59375 7.019531 -7.984375 6 -8.140625 L 4.546875 -8.359375 Z M 3.515625 -1.46875 "/></g></g></g><g fill="#000000" fill-opacity="1"><g transform="translate(257.031202, 239.052036)"><g><path d="M 5.609375 -9.90625 L 3.171875 0.71875 L 0.921875 0.21875 L 3.359375 -10.40625 Z M 5.609375 -9.90625 "/></g></g></g><g fill="#000000" fill-opacity="1"><g transform="translate(264.16273, 240.662468)"><g><path d="M 12.109375 -1.921875 C 11.742188 -0.785156 11.222656 0.109375 10.546875 0.765625 C 9.867188 1.429688 9.09375 1.859375 8.21875 2.046875 C 7.351562 2.242188 6.460938 2.195312 5.546875 1.90625 C 4.617188 1.613281 3.851562 1.140625 3.25 0.484375 C 2.644531 -0.171875 2.253906 -0.960938 2.078125 -1.890625 C 1.910156 -2.828125 2.003906 -3.859375 2.359375 -4.984375 C 2.710938 -6.117188 3.226562 -7.015625 3.90625 -7.671875 C 4.582031 -8.335938 5.351562 -8.765625 6.21875 -8.953125 C 7.082031 -9.140625 7.976562 -9.085938 8.90625 -8.796875 C 9.820312 -8.503906 10.582031 -8.03125 11.1875 -7.375 C 11.800781 -6.726562 12.195312 -5.941406 12.375 -5.015625 C 12.550781 -4.085938 12.460938 -3.054688 12.109375 -1.921875 Z M 9.890625 -2.609375 C 10.234375 -3.710938 10.253906 -4.628906 9.953125 -5.359375 C 9.648438 -6.085938 9.097656 -6.582031 8.296875 -6.84375 C 7.492188 -7.09375 6.757812 -7.003906 6.09375 -6.578125 C 5.4375 -6.148438 4.9375 -5.382812 4.59375 -4.28125 C 4.238281 -3.175781 4.207031 -2.253906 4.5 -1.515625 C 4.800781 -0.785156 5.351562 -0.296875 6.15625 -0.046875 C 6.957031 0.210938 7.691406 0.128906 8.359375 -0.296875 C 9.023438 -0.734375 9.535156 -1.503906 9.890625 -2.609375 Z M 9.890625 -2.609375 "/></g></g></g></svg>